<?xml version="1.0" encoding="UTF-8" standalone="no"?>
<!DOCTYPE svg PUBLIC "-//W3C//DTD SVG 1.1//EN"
 "http://www.w3.org/Graphics/SVG/1.1/DTD/svg11.dtd">
<!-- Generated by graphviz version 12.2.1 (20241206.2353)
 -->
<!-- Title: Network Pages: 1 -->
<svg width="2908pt" height="548pt"
 viewBox="0.00 0.00 2907.82 548.12" xmlns="http://www.w3.org/2000/svg" xmlns:xlink="http://www.w3.org/1999/xlink">
<g id="graph0" class="graph" transform="scale(1 1) rotate(0) translate(4 544.12)">
<title>Network</title>
<polygon fill="white" stroke="none" points="-4,4 -4,-544.12 2903.82,-544.12 2903.82,4 -4,4"/>
<!-- 1 -->
<g id="node1" class="node">
<title>1</title>
<ellipse fill="lightblue" stroke="black" cx="1155.7" cy="-466.23" rx="73.89" ry="73.89"/>
<text text-anchor="middle" x="1155.7" y="-469.43" font-family="Times New Roman,serif" font-size="14.00">server.node1 (1)</text>
<text text-anchor="middle" x="1155.7" y="-452.93" font-family="Times New Roman,serif" font-size="14.00">0.0.0.0:9901</text>
</g>
<!-- 2 -->
<g id="node2" class="node">
<title>2</title>
<ellipse fill="lightblue" stroke="black" cx="1155.7" cy="-265.95" rx="73.89" ry="73.89"/>
<text text-anchor="middle" x="1155.7" y="-269.15" font-family="Times New Roman,serif" font-size="14.00">server.node2 (2)</text>
<text text-anchor="middle" x="1155.7" y="-252.65" font-family="Times New Roman,serif" font-size="14.00">0.0.0.0:9902</text>
</g>
<!-- 1&#45;&gt;2 -->
<g id="edge1" class="edge">
<title>1&#45;&gt;2</title>
<path fill="none" stroke="black" stroke-width="2" d="M1149.16,-392.24C1148.95,-379.4 1148.9,-365.94 1149,-352.79"/>
<polygon fill="black" stroke="black" stroke-width="2" points="1152.5,-352.85 1149.13,-342.81 1145.5,-352.76 1152.5,-352.85"/>
</g>
<!-- 1&#45;&gt;2 -->
<g id="edge15" class="edge">
<title>1&#45;&gt;2</title>
<path fill="none" stroke="#bc020b" stroke-dasharray="5,2" d="M1155.7,-391.96C1155.7,-378.77 1155.7,-364.93 1155.7,-351.46"/>
<polygon fill="#bc020b" stroke="#bc020b" points="1159.2,-351.76 1155.7,-341.76 1152.2,-351.76 1159.2,-351.76"/>
<text text-anchor="middle" x="1311.32" y="-361.04" font-family="Times New Roman,serif" font-size="14.00" fill="#bc020b">{&#39;udp_tunnel_id&#39;: 2012}: 0.0.0.0:2010 → 127.0.0.1:8302</text>
</g>
<!-- 3 -->
<g id="node3" class="node">
<title>3</title>
<ellipse fill="lightblue" stroke="black" cx="519.7" cy="-69.78" rx="69.78" ry="69.78"/>
<text text-anchor="middle" x="519.7" y="-64.73" font-family="Times New Roman,serif" font-size="14.00">client.node3 (3)</text>
</g>
<!-- 1&#45;&gt;3 -->
<g id="edge11" class="edge">
<title>1&#45;&gt;3</title>
<path fill="none" stroke="#ce1d8a" stroke-dasharray="5,2" d="M1081.78,-462.58C842.71,-453.27 101.86,-418.26 31.7,-339.84 -12.1,-290.89 -8.76,-243.8 31.7,-192.05 81.37,-128.53 313.47,-93.53 438.84,-78.97"/>
<polygon fill="#ce1d8a" stroke="#ce1d8a" points="439.22,-82.45 448.76,-77.84 438.43,-75.5 439.22,-82.45"/>
<text text-anchor="middle" x="247.7" y="-260.9" font-family="Times New Roman,serif" font-size="14.00" fill="#ce1d8a">{&#39;tcp_tunnel_id&#39;: 1021, &#39;udp_tunnel_id&#39;: 1022}: 0.0.0.0:1020 → 127.0.0.1:8303</text>
</g>
<!-- 4 -->
<g id="node4" class="node">
<title>4</title>
<ellipse fill="lightblue" stroke="black" cx="2173.7" cy="-69.78" rx="69.78" ry="69.78"/>
<text text-anchor="middle" x="2173.7" y="-64.73" font-family="Times New Roman,serif" font-size="14.00">client.node4 (4)</text>
</g>
<!-- 1&#45;&gt;4 -->
<g id="edge12" class="edge">
<title>1&#45;&gt;4</title>
<path fill="none" stroke="#ce1d8a" stroke-dasharray="5,2" d="M1229.7,-460.76C1375.51,-450.96 1694.18,-424.38 1790.7,-374.34 1889.59,-323.07 1861.38,-238.34 1962.7,-192.05 2005.28,-172.6 2351.31,-207.86 2383.7,-174.05 2429.65,-126.1 2331.3,-97.28 2254.19,-82.71"/>
<polygon fill="#ce1d8a" stroke="#ce1d8a" points="2254.95,-79.29 2244.48,-80.93 2253.69,-86.17 2254.95,-79.29"/>
<text text-anchor="middle" x="2178.7" y="-260.9" font-family="Times New Roman,serif" font-size="14.00" fill="#ce1d8a">{&#39;tcp_tunnel_id&#39;: 1021, &#39;udp_tunnel_id&#39;: 1022}: 0.0.0.0:1020 → 127.0.0.1:8304</text>
</g>
<!-- 2&#45;&gt;1 -->
<g id="edge2" class="edge">
<title>2&#45;&gt;1</title>
<path fill="none" stroke="black" stroke-width="2" d="M1162.23,-339.78C1162.45,-352.61 1162.5,-366.08 1162.4,-379.23"/>
<polygon fill="black" stroke="black" stroke-width="2" points="1158.9,-379.17 1162.27,-389.21 1165.9,-379.26 1158.9,-379.17"/>
</g>
<!-- 2&#45;&gt;1 -->
<g id="edge16" class="edge">
<title>2&#45;&gt;1</title>
<path fill="none" stroke="#97c108" stroke-dasharray="5,2" d="M1228.98,-277.8C1312.63,-291.86 1441.66,-319.23 1470.7,-357.84 1532.82,-440.42 1354.38,-460.03 1241.19,-464.35"/>
<polygon fill="#97c108" stroke="#97c108" points="1241.16,-460.85 1231.29,-464.69 1241.4,-467.84 1241.16,-460.85"/>
<text text-anchor="middle" x="1632.81" y="-361.04" font-family="Times New Roman,serif" font-size="14.00" fill="#97c108">{&#39;tcp_tunnel_id&#39;: 3011}: 0.0.0.0:3010 → 127.0.0.1:8301</text>
</g>
<!-- 2&#45;&gt;3 -->
<g id="edge13" class="edge">
<title>2&#45;&gt;3</title>
<path fill="none" stroke="#ce1d8a" stroke-dasharray="5,2" d="M1088.75,-234.08C1051.57,-218.48 1004.01,-200.99 959.7,-192.05 913.15,-182.66 567.64,-206.21 532.7,-174.05 525.75,-167.66 521.1,-159.57 518.09,-150.75"/>
<polygon fill="#ce1d8a" stroke="#ce1d8a" points="521.5,-149.94 515.58,-141.15 514.72,-151.71 521.5,-149.94"/>
<text text-anchor="middle" x="748.7" y="-160.75" font-family="Times New Roman,serif" font-size="14.00" fill="#ce1d8a">{&#39;tcp_tunnel_id&#39;: 1021, &#39;udp_tunnel_id&#39;: 1022}: 0.0.0.0:1020 → 127.0.0.1:8303</text>
</g>
<!-- 2&#45;&gt;4 -->
<g id="edge14" class="edge">
<title>2&#45;&gt;4</title>
<path fill="none" stroke="#ce1d8a" stroke-dasharray="5,2" d="M1228.59,-251.15C1290,-237.52 1378.78,-212.97 1448.7,-174.05 1458.47,-168.61 1457.48,-162.1 1467.7,-157.55 1577.95,-108.49 1931.32,-83.76 2092.36,-74.81"/>
<polygon fill="#ce1d8a" stroke="#ce1d8a" points="2092.31,-78.32 2102.11,-74.28 2091.93,-71.33 2092.31,-78.32"/>
<text text-anchor="middle" x="1683.7" y="-160.75" font-family="Times New Roman,serif" font-size="14.00" fill="#ce1d8a">{&#39;tcp_tunnel_id&#39;: 1021, &#39;udp_tunnel_id&#39;: 1022}: 0.0.0.0:1020 → 127.0.0.1:8304</text>
</g>
<!-- 3&#45;&gt;1 -->
<g id="edge3" class="edge">
<title>3&#45;&gt;1</title>
<path fill="none" stroke="black" stroke-width="2" d="M493.03,-134.72C468.58,-204.81 445.04,-315.14 509.7,-374.34 589.68,-447.57 911.46,-462.1 1068.55,-464.77"/>
<polygon fill="black" stroke="black" stroke-width="2" points="1068.32,-468.27 1078.37,-464.93 1068.43,-461.27 1068.32,-468.27"/>
</g>
<!-- 3&#45;&gt;1 -->
<g id="edge7" class="edge">
<title>3&#45;&gt;1</title>
<path fill="none" stroke="#a863ba" stroke-dasharray="5,2" d="M511.93,-139.53C512.42,-151.25 514.1,-163.16 517.7,-174.05 546.49,-261.17 564.24,-289.13 640.7,-339.84 773.46,-427.9 962.18,-454.2 1070.46,-462"/>
<polygon fill="#a863ba" stroke="#a863ba" points="1069.93,-465.47 1080.14,-462.66 1070.4,-458.49 1069.93,-465.47"/>
<text text-anchor="middle" x="856.7" y="-260.9" font-family="Times New Roman,serif" font-size="14.00" fill="#a863ba">{&#39;tcp_tunnel_id&#39;: 1011, &#39;udp_tunnel_id&#39;: 1012}: 0.0.0.0:1010 → 127.0.0.1:8301</text>
</g>
<!-- 3&#45;&gt;2 -->
<g id="edge4" class="edge">
<title>3&#45;&gt;2</title>
<path fill="none" stroke="black" stroke-width="2" d="M589.4,-76.82C679.42,-86.28 839.86,-108.81 968.7,-157.55 982.21,-162.66 984.21,-166.8 996.7,-174.05 1024.01,-189.9 1054.06,-207.14 1080.61,-222.29"/>
<polygon fill="black" stroke="black" stroke-width="2" points="1078.71,-225.24 1089.13,-227.15 1082.18,-219.16 1078.71,-225.24"/>
</g>
<!-- 3&#45;&gt;2 -->
<g id="edge8" class="edge">
<title>3&#45;&gt;2</title>
<path fill="none" stroke="#a863ba" stroke-dasharray="5,2" d="M589.53,-74.01C684.47,-80.5 857.99,-99.9 993.7,-157.55 1005.28,-162.47 1006.32,-166.94 1016.7,-174.05 1038.45,-188.96 1062.41,-204.82 1084.21,-219.04"/>
<polygon fill="#a863ba" stroke="#a863ba" points="1082.18,-221.89 1092.47,-224.42 1086,-216.03 1082.18,-221.89"/>
<text text-anchor="middle" x="1232.7" y="-160.75" font-family="Times New Roman,serif" font-size="14.00" fill="#a863ba">{&#39;tcp_tunnel_id&#39;: 1011, &#39;udp_tunnel_id&#39;: 1012}: 0.0.0.0:1010 → 127.0.0.1:8302</text>
</g>
<!-- 4&#45;&gt;1 -->
<g id="edge5" class="edge">
<title>4&#45;&gt;1</title>
<path fill="none" stroke="black" stroke-width="2" d="M2243.68,-75.8C2298.62,-83.85 2371.78,-104.56 2408.7,-157.55 2455.08,-224.13 2454.9,-281.32 2398.7,-339.84 2318.73,-423.09 1512.17,-454.59 1242.78,-462.84"/>
<polygon fill="black" stroke="black" stroke-width="2" points="1242.89,-459.34 1233,-463.14 1243.11,-466.34 1242.89,-459.34"/>
</g>
<!-- 4&#45;&gt;1 -->
<g id="edge9" class="edge">
<title>4&#45;&gt;1</title>
<path fill="none" stroke="#a863ba" stroke-dasharray="5,2" d="M2243.68,-75.96C2301.49,-84.07 2381.33,-104.78 2427.7,-157.55 2481.21,-218.46 2478.78,-271.79 2434.7,-339.84 2369.68,-440.21 1516.45,-460.41 1240.88,-464.33"/>
<polygon fill="#a863ba" stroke="#a863ba" points="1241.22,-460.82 1231.27,-464.46 1241.32,-467.82 1241.22,-460.82"/>
<text text-anchor="middle" x="2683.82" y="-260.9" font-family="Times New Roman,serif" font-size="14.00" fill="#a863ba">{&#39;tcp_tunnel_id&#39;: 1011, &#39;udp_tunnel_id&#39;: 1012}: 0.0.0.0:1010 → 127.0.0.1:8301</text>
</g>
<!-- 4&#45;&gt;2 -->
<g id="edge6" class="edge">
<title>4&#45;&gt;2</title>
<path fill="none" stroke="black" stroke-width="2" d="M2106.87,-90.99C2057.51,-106.81 1989.19,-130.6 1931.7,-157.55 1918.62,-163.68 1917.38,-169.42 1903.7,-174.05 1674.07,-251.86 1384.87,-264.65 1242.72,-265.78"/>
<polygon fill="black" stroke="black" stroke-width="2" points="1242.85,-262.28 1232.87,-265.83 1242.89,-269.28 1242.85,-262.28"/>
</g>
<!-- 4&#45;&gt;2 -->
<g id="edge10" class="edge">
<title>4&#45;&gt;2</title>
<path fill="none" stroke="#a863ba" stroke-dasharray="5,2" d="M2107.18,-91.89C2062.03,-107.38 2001.7,-130.4 1951.7,-157.55 1940.64,-163.56 1940.43,-169.51 1928.7,-174.05 1804.85,-222.04 1415.39,-249.93 1241.28,-260.28"/>
<polygon fill="#a863ba" stroke="#a863ba" points="1241.16,-256.79 1231.38,-260.87 1241.57,-263.77 1241.16,-256.79"/>
<text text-anchor="middle" x="2167.7" y="-160.75" font-family="Times New Roman,serif" font-size="14.00" fill="#a863ba">{&#39;tcp_tunnel_id&#39;: 1011, &#39;udp_tunnel_id&#39;: 1012}: 0.0.0.0:1010 → 127.0.0.1:8302</text>
</g>
</g>
</svg>
