<?xml version="1.0" encoding="UTF-8" standalone="no"?>
<!DOCTYPE svg PUBLIC "-//W3C//DTD SVG 1.1//EN"
 "http://www.w3.org/Graphics/SVG/1.1/DTD/svg11.dtd">
<!-- Generated by graphviz version 12.2.1 (20241206.2353)
 -->
<!-- Title: Network Pages: 1 -->
<svg width="2899pt" height="389pt"
 viewBox="0.00 0.00 2898.59 389.42" xmlns="http://www.w3.org/2000/svg" xmlns:xlink="http://www.w3.org/1999/xlink">
<g id="graph0" class="graph" transform="scale(1 1) rotate(0) translate(4 385.42)">
<title>Network</title>
<polygon fill="white" stroke="none" points="-4,4 -4,-385.42 2894.59,-385.42 2894.59,4 -4,4"/>
<!-- 1 -->
<g id="node1" class="node">
<title>1</title>
<ellipse fill="lightblue" stroke="black" cx="1165.62" cy="-321.31" rx="60.1" ry="60.1"/>
<text text-anchor="middle" x="1165.62" y="-324.51" font-family="Times New Roman,serif" font-size="14.00">1</text>
<text text-anchor="middle" x="1165.62" y="-308.01" font-family="Times New Roman,serif" font-size="14.00">0.0.0.0:9901</text>
</g>
<!-- 2 -->
<g id="node2" class="node">
<title>2</title>
<ellipse fill="lightblue" stroke="black" cx="1165.62" cy="-148.6" rx="60.1" ry="60.1"/>
<text text-anchor="middle" x="1165.62" y="-151.8" font-family="Times New Roman,serif" font-size="14.00">2</text>
<text text-anchor="middle" x="1165.62" y="-135.3" font-family="Times New Roman,serif" font-size="14.00">0.0.0.0:9902</text>
</g>
<!-- 1&#45;&gt;2 -->
<g id="edge1" class="edge">
<title>1&#45;&gt;2</title>
<path fill="none" stroke="black" stroke-width="2" d="M1159.16,-261.09C1158.87,-248.37 1158.79,-234.81 1158.94,-221.67"/>
<polygon fill="black" stroke="black" stroke-width="2" points="1162.44,-221.81 1159.11,-211.75 1155.44,-221.69 1162.44,-221.81"/>
</g>
<!-- 1&#45;&gt;2 -->
<g id="edge15" class="edge">
<title>1&#45;&gt;2</title>
<path fill="none" stroke="#a200ea" stroke-dasharray="5,2" d="M1165.62,-261.09C1165.62,-247.92 1165.62,-233.84 1165.62,-220.26"/>
<polygon fill="#a200ea" stroke="#a200ea" points="1169.12,-220.53 1165.62,-210.53 1162.12,-220.53 1169.12,-220.53"/>
<text text-anchor="middle" x="1321.24" y="-229.91" font-family="Times New Roman,serif" font-size="14.00" fill="#a200ea">{&#39;udp_tunnel_id&#39;: 2012}: 0.0.0.0:2010 → 127.0.0.1:8302</text>
</g>
<!-- 3 -->
<g id="node3" class="node">
<title>3</title>
<ellipse fill="lightblue" stroke="black" cx="515.62" cy="-18" rx="18" ry="18"/>
<text text-anchor="middle" x="515.62" y="-12.95" font-family="Times New Roman,serif" font-size="14.00">3</text>
</g>
<!-- 1&#45;&gt;3 -->
<g id="edge11" class="edge">
<title>1&#45;&gt;3</title>
<path fill="none" stroke="#8967e0" stroke-dasharray="5,2" d="M1105.31,-319.03C880.4,-313.65 99.65,-289.25 26.62,-208.71 -9.27,-169.13 -8.4,-128.85 26.62,-88.5 86.86,-19.09 389.06,-17.19 485.79,-18.41"/>
<polygon fill="#8967e0" stroke="#8967e0" points="485.72,-21.91 495.77,-18.56 485.83,-14.91 485.72,-21.91"/>
<text text-anchor="middle" x="242.62" y="-143.55" font-family="Times New Roman,serif" font-size="14.00" fill="#8967e0">{&#39;tcp_tunnel_id&#39;: 1021, &#39;udp_tunnel_id&#39;: 1022}: 0.0.0.0:1020 → 127.0.0.1:8303</text>
</g>
<!-- 4 -->
<g id="node4" class="node">
<title>4</title>
<ellipse fill="lightblue" stroke="black" cx="2169.62" cy="-18" rx="18" ry="18"/>
<text text-anchor="middle" x="2169.62" y="-12.95" font-family="Times New Roman,serif" font-size="14.00">4</text>
</g>
<!-- 1&#45;&gt;4 -->
<g id="edge12" class="edge">
<title>1&#45;&gt;4</title>
<path fill="none" stroke="#8967e0" stroke-dasharray="5,2" d="M1225.98,-317.73C1363.38,-311.08 1695.32,-290.49 1795.62,-243.21 1885.96,-200.62 1866.66,-127.49 1958.62,-88.5 2001.72,-70.22 2347.23,-104.31 2379.62,-70.5 2384.69,-65.2 2384.36,-59.6 2379.62,-54 2356.84,-27.12 2251.52,-20.86 2199.23,-19.42"/>
<polygon fill="#8967e0" stroke="#8967e0" points="2199.63,-15.93 2189.56,-19.2 2199.47,-22.93 2199.63,-15.93"/>
<text text-anchor="middle" x="2174.62" y="-143.55" font-family="Times New Roman,serif" font-size="14.00" fill="#8967e0">{&#39;tcp_tunnel_id&#39;: 1021, &#39;udp_tunnel_id&#39;: 1022}: 0.0.0.0:1020 → 127.0.0.1:8304</text>
</g>
<!-- 2&#45;&gt;1 -->
<g id="edge2" class="edge">
<title>2&#45;&gt;1</title>
<path fill="none" stroke="black" stroke-width="2" d="M1172.08,-208.73C1172.37,-221.43 1172.44,-235 1172.3,-248.14"/>
<polygon fill="black" stroke="black" stroke-width="2" points="1168.8,-248 1172.13,-258.06 1175.8,-248.12 1168.8,-248"/>
</g>
<!-- 2&#45;&gt;1 -->
<g id="edge16" class="edge">
<title>2&#45;&gt;1</title>
<path fill="none" stroke="#cfc807" stroke-dasharray="5,2" d="M1225.52,-155.58C1307.9,-165.16 1449.51,-187.07 1480.62,-226.71 1512.74,-267.64 1339.15,-297.77 1236.7,-311.7"/>
<polygon fill="#cfc807" stroke="#cfc807" points="1236.44,-308.21 1226.99,-313 1237.37,-315.14 1236.44,-308.21"/>
<text text-anchor="middle" x="1638.27" y="-229.91" font-family="Times New Roman,serif" font-size="14.00" fill="#cfc807">{&#39;tcp_tunnel_id&#39;: 3011}: 0.0.0.0:3010 → 127.0.0.1:8301</text>
</g>
<!-- 2&#45;&gt;3 -->
<g id="edge13" class="edge">
<title>2&#45;&gt;3</title>
<path fill="none" stroke="#8967e0" stroke-dasharray="5,2" d="M1108.93,-127.78C1067.12,-114.11 1008.54,-96.95 955.62,-88.5 908.72,-81.02 565.46,-100.46 528.62,-70.5 521.65,-64.84 518.11,-56.03 516.38,-47.3"/>
<polygon fill="#8967e0" stroke="#8967e0" points="519.89,-47.13 515.22,-37.62 512.94,-47.97 519.89,-47.13"/>
<text text-anchor="middle" x="744.62" y="-57.2" font-family="Times New Roman,serif" font-size="14.00" fill="#8967e0">{&#39;tcp_tunnel_id&#39;: 1021, &#39;udp_tunnel_id&#39;: 1022}: 0.0.0.0:1020 → 127.0.0.1:8303</text>
</g>
<!-- 2&#45;&gt;4 -->
<g id="edge14" class="edge">
<title>2&#45;&gt;4</title>
<path fill="none" stroke="#8967e0" stroke-dasharray="5,2" d="M1225.38,-139C1283.92,-128.8 1374.32,-108.21 1444.62,-70.5 1454.47,-65.21 1453.24,-58.17 1463.62,-54 1526.98,-28.52 2013.89,-20.89 2139.92,-19.33"/>
<polygon fill="#8967e0" stroke="#8967e0" points="2139.8,-22.83 2149.76,-19.21 2139.72,-15.83 2139.8,-22.83"/>
<text text-anchor="middle" x="1679.62" y="-57.2" font-family="Times New Roman,serif" font-size="14.00" fill="#8967e0">{&#39;tcp_tunnel_id&#39;: 1021, &#39;udp_tunnel_id&#39;: 1022}: 0.0.0.0:1020 → 127.0.0.1:8304</text>
</g>
<!-- 3&#45;&gt;1 -->
<g id="edge3" class="edge">
<title>3&#45;&gt;1</title>
<path fill="none" stroke="black" stroke-width="2" d="M502.63,-30.99C496.84,-37.22 490.66,-45.34 487.62,-54 459.66,-133.71 442.65,-186.9 505.62,-243.21 548.76,-281.79 929.88,-307.27 1092.55,-316.47"/>
<polygon fill="black" stroke="black" stroke-width="2" points="1092.07,-319.95 1102.25,-317.02 1092.46,-312.96 1092.07,-319.95"/>
</g>
<!-- 3&#45;&gt;1 -->
<g id="edge7" class="edge">
<title>3&#45;&gt;1</title>
<path fill="none" stroke="#c017fd" stroke-dasharray="5,2" d="M511.81,-35.93C510.29,-46.33 509.88,-59.69 514.62,-70.5 551.01,-153.52 584.29,-166.7 664.62,-208.71 805.47,-282.37 993.27,-307.56 1094.21,-316.07"/>
<polygon fill="#c017fd" stroke="#c017fd" points="1093.73,-319.54 1103.98,-316.86 1094.3,-312.56 1093.73,-319.54"/>
<text text-anchor="middle" x="880.62" y="-143.55" font-family="Times New Roman,serif" font-size="14.00" fill="#c017fd">{&#39;tcp_tunnel_id&#39;: 1011, &#39;udp_tunnel_id&#39;: 1012}: 0.0.0.0:1010 → 127.0.0.1:8301</text>
</g>
<!-- 3&#45;&gt;2 -->
<g id="edge4" class="edge">
<title>3&#45;&gt;2</title>
<path fill="none" stroke="black" stroke-width="2" d="M533.88,-19.33C607.47,-20.82 882.21,-28.04 964.62,-54 978.39,-58.34 979.78,-63.88 992.62,-70.5 1026.85,-88.14 1065.97,-105.78 1098.34,-119.73"/>
<polygon fill="black" stroke="black" stroke-width="2" points="1096.58,-122.78 1107.15,-123.5 1099.34,-116.35 1096.58,-122.78"/>
</g>
<!-- 3&#45;&gt;2 -->
<g id="edge8" class="edge">
<title>3&#45;&gt;2</title>
<path fill="none" stroke="#c017fd" stroke-dasharray="5,2" d="M533.92,-19.04C610.29,-19.38 903.52,-22.76 989.62,-54 1001.44,-58.29 1001.86,-63.98 1012.62,-70.5 1040.71,-87.51 1073.02,-104.19 1100.69,-117.66"/>
<polygon fill="#c017fd" stroke="#c017fd" points="1099.16,-120.81 1109.69,-122 1102.21,-114.5 1099.16,-120.81"/>
<text text-anchor="middle" x="1228.62" y="-57.2" font-family="Times New Roman,serif" font-size="14.00" fill="#c017fd">{&#39;tcp_tunnel_id&#39;: 1011, &#39;udp_tunnel_id&#39;: 1012}: 0.0.0.0:1010 → 127.0.0.1:8302</text>
</g>
<!-- 4&#45;&gt;1 -->
<g id="edge5" class="edge">
<title>4&#45;&gt;1</title>
<path fill="none" stroke="black" stroke-width="2" d="M2187.99,-18.8C2238.31,-18.7 2376.54,-21.43 2404.62,-54 2449.61,-106.19 2442.89,-159.54 2394.62,-208.71 2313.42,-291.41 1491.47,-314.04 1238.99,-319.06"/>
<polygon fill="black" stroke="black" stroke-width="2" points="1238.95,-315.56 1229.02,-319.26 1239.08,-322.56 1238.95,-315.56"/>
</g>
<!-- 4&#45;&gt;1 -->
<g id="edge9" class="edge">
<title>4&#45;&gt;1</title>
<path fill="none" stroke="#c017fd" stroke-dasharray="5,2" d="M2187.8,-18.74C2240.51,-18.39 2391.71,-20.4 2424.62,-54 2472.74,-103.14 2465.72,-150.79 2428.62,-208.71 2363.96,-309.62 1495.3,-319.61 1237.35,-320.34"/>
<polygon fill="#c017fd" stroke="#c017fd" points="1237.4,-316.84 1227.41,-320.36 1237.42,-323.84 1237.4,-316.84"/>
<text text-anchor="middle" x="2674.59" y="-143.55" font-family="Times New Roman,serif" font-size="14.00" fill="#c017fd">{&#39;tcp_tunnel_id&#39;: 1011, &#39;udp_tunnel_id&#39;: 1012}: 0.0.0.0:1010 → 127.0.0.1:8301</text>
</g>
<!-- 4&#45;&gt;2 -->
<g id="edge6" class="edge">
<title>4&#45;&gt;2</title>
<path fill="none" stroke="black" stroke-width="2" d="M2151.44,-19.25C2110.36,-20.32 2007.71,-25.84 1927.62,-54 1913.99,-58.79 1913.34,-65.98 1899.62,-70.5 1778.03,-110.6 1399,-135.08 1238.54,-143.89"/>
<polygon fill="black" stroke="black" stroke-width="2" points="1238.81,-140.37 1229.02,-144.41 1239.19,-147.36 1238.81,-140.37"/>
</g>
<!-- 4&#45;&gt;2 -->
<g id="edge10" class="edge">
<title>4&#45;&gt;2</title>
<path fill="none" stroke="#c017fd" stroke-dasharray="5,2" d="M2151.31,-19.07C2112.33,-19.8 2018.91,-24.75 1947.62,-54 1935.98,-58.78 1936.38,-66.05 1924.62,-70.5 1799.86,-117.71 1401.58,-138.36 1237.41,-145.02"/>
<polygon fill="#c017fd" stroke="#c017fd" points="1237.36,-141.52 1227.51,-145.42 1237.64,-148.51 1237.36,-141.52"/>
<text text-anchor="middle" x="2163.62" y="-57.2" font-family="Times New Roman,serif" font-size="14.00" fill="#c017fd">{&#39;tcp_tunnel_id&#39;: 1011, &#39;udp_tunnel_id&#39;: 1012}: 0.0.0.0:1010 → 127.0.0.1:8302</text>
</g>
</g>
</svg>
