<?xml version="1.0" encoding="UTF-8" standalone="no"?>
<!DOCTYPE svg PUBLIC "-//W3C//DTD SVG 1.1//EN"
 "http://www.w3.org/Graphics/SVG/1.1/DTD/svg11.dtd">
<!-- Generated by graphviz version 12.2.1 (20241206.2353)
 -->
<!-- Title: Network Pages: 1 -->
<svg width="2908pt" height="550pt"
 viewBox="0.00 0.00 2908.25 550.24" xmlns="http://www.w3.org/2000/svg" xmlns:xlink="http://www.w3.org/1999/xlink">
<g id="graph0" class="graph" transform="scale(1 1) rotate(0) translate(4 546.24)">
<title>Network</title>
<polygon fill="white" stroke="none" points="-4,4 -4,-546.24 2904.25,-546.24 2904.25,4 -4,4"/>
<!-- 1 -->
<g id="node1" class="node">
<title>1</title>
<ellipse fill="lightblue" stroke="black" cx="1155.92" cy="-467.82" rx="74.42" ry="74.42"/>
<text text-anchor="middle" x="1155.92" y="-471.02" font-family="Times New Roman,serif" font-size="14.00">server.node1 (1)</text>
<text text-anchor="middle" x="1155.92" y="-454.52" font-family="Times New Roman,serif" font-size="14.00">4.150.1.61:9901</text>
</g>
<!-- 2 -->
<g id="node2" class="node">
<title>2</title>
<ellipse fill="lightblue" stroke="black" cx="1155.92" cy="-266.48" rx="74.42" ry="74.42"/>
<text text-anchor="middle" x="1155.92" y="-269.68" font-family="Times New Roman,serif" font-size="14.00">server.node2 (2)</text>
<text text-anchor="middle" x="1155.92" y="-253.18" font-family="Times New Roman,serif" font-size="14.00">4.150.2.61:9902</text>
</g>
<!-- 1&#45;&gt;2 -->
<g id="edge1" class="edge">
<title>1&#45;&gt;2</title>
<path fill="none" stroke="black" stroke-width="2" d="M1149.38,-393.44C1149.17,-380.62 1149.12,-367.17 1149.22,-354.03"/>
<polygon fill="black" stroke="black" stroke-width="2" points="1152.72,-354.1 1149.35,-344.06 1145.72,-354.02 1152.72,-354.1"/>
</g>
<!-- 1&#45;&gt;2 -->
<g id="edge15" class="edge">
<title>1&#45;&gt;2</title>
<path fill="none" stroke="#9c181a" stroke-dasharray="5,2" d="M1155.92,-393.16C1155.92,-379.9 1155.92,-365.98 1155.92,-352.44"/>
<polygon fill="#9c181a" stroke="#9c181a" points="1159.42,-352.68 1155.92,-342.68 1152.42,-352.68 1159.42,-352.68"/>
<text text-anchor="middle" x="1311.55" y="-362.1" font-family="Times New Roman,serif" font-size="14.00" fill="#9c181a">{&#39;udp_tunnel_id&#39;: 2012}: 0.0.0.0:2010 → 127.0.0.1:8302</text>
</g>
<!-- 3 -->
<g id="node3" class="node">
<title>3</title>
<ellipse fill="lightblue" stroke="black" cx="519.92" cy="-69.78" rx="69.78" ry="69.78"/>
<text text-anchor="middle" x="519.92" y="-64.73" font-family="Times New Roman,serif" font-size="14.00">client.node3 (3)</text>
</g>
<!-- 1&#45;&gt;3 -->
<g id="edge11" class="edge">
<title>1&#45;&gt;3</title>
<path fill="none" stroke="#9dafff" stroke-dasharray="5,2" d="M1081.16,-464.11C841.2,-454.63 101.99,-419.25 31.92,-340.9 -12.18,-291.59 -8.83,-244.17 31.92,-192.05 81.59,-128.53 313.69,-93.53 439.07,-78.97"/>
<polygon fill="#9dafff" stroke="#9dafff" points="439.45,-82.45 448.99,-77.84 438.65,-75.5 439.45,-82.45"/>
<text text-anchor="middle" x="247.92" y="-261.43" font-family="Times New Roman,serif" font-size="14.00" fill="#9dafff">{&#39;tcp_tunnel_id&#39;: 1021, &#39;udp_tunnel_id&#39;: 1022}: 0.0.0.0:1020 → 127.0.0.1:8303</text>
</g>
<!-- 4 -->
<g id="node4" class="node">
<title>4</title>
<ellipse fill="lightblue" stroke="black" cx="2173.92" cy="-69.78" rx="69.78" ry="69.78"/>
<text text-anchor="middle" x="2173.92" y="-64.73" font-family="Times New Roman,serif" font-size="14.00">client.node4 (4)</text>
</g>
<!-- 1&#45;&gt;4 -->
<g id="edge12" class="edge">
<title>1&#45;&gt;4</title>
<path fill="none" stroke="#9dafff" stroke-dasharray="5,2" d="M1230.5,-462.27C1376.58,-452.35 1694.61,-425.56 1790.92,-375.4 1890.02,-323.79 1861.36,-238.63 1962.92,-192.05 2005.48,-172.53 2351.53,-207.86 2383.92,-174.05 2429.87,-126.1 2331.52,-97.28 2254.42,-82.71"/>
<polygon fill="#9dafff" stroke="#9dafff" points="2255.17,-79.29 2244.7,-80.93 2253.91,-86.17 2255.17,-79.29"/>
<text text-anchor="middle" x="2178.92" y="-261.43" font-family="Times New Roman,serif" font-size="14.00" fill="#9dafff">{&#39;tcp_tunnel_id&#39;: 1021, &#39;udp_tunnel_id&#39;: 1022}: 0.0.0.0:1020 → 127.0.0.1:8304</text>
</g>
<!-- 2&#45;&gt;1 -->
<g id="edge2" class="edge">
<title>2&#45;&gt;1</title>
<path fill="none" stroke="black" stroke-width="2" d="M1162.46,-341.03C1162.67,-353.86 1162.72,-367.31 1162.62,-380.45"/>
<polygon fill="black" stroke="black" stroke-width="2" points="1159.12,-380.37 1162.5,-390.42 1166.12,-380.46 1159.12,-380.37"/>
</g>
<!-- 2&#45;&gt;1 -->
<g id="edge16" class="edge">
<title>2&#45;&gt;1</title>
<path fill="none" stroke="#b06318" stroke-dasharray="5,2" d="M1230.45,-268.06C1342.56,-271.65 1535.06,-290 1470.92,-375.4 1443.21,-412.29 1324.36,-439.11 1240.86,-453.83"/>
<polygon fill="#b06318" stroke="#b06318" points="1240.33,-450.37 1231.07,-455.52 1241.52,-457.26 1240.33,-450.37"/>
<text text-anchor="middle" x="1633.03" y="-362.1" font-family="Times New Roman,serif" font-size="14.00" fill="#b06318">{&#39;tcp_tunnel_id&#39;: 3011}: 0.0.0.0:3010 → 127.0.0.1:8301</text>
</g>
<!-- 2&#45;&gt;3 -->
<g id="edge13" class="edge">
<title>2&#45;&gt;3</title>
<path fill="none" stroke="#9dafff" stroke-dasharray="5,2" d="M1088.55,-234.19C1051.44,-218.52 1004.08,-201.02 959.92,-192.05 913.38,-182.61 567.87,-206.21 532.92,-174.05 525.97,-167.66 521.32,-159.57 518.31,-150.75"/>
<polygon fill="#9dafff" stroke="#9dafff" points="521.72,-149.94 515.8,-141.15 514.95,-151.71 521.72,-149.94"/>
<text text-anchor="middle" x="748.92" y="-160.75" font-family="Times New Roman,serif" font-size="14.00" fill="#9dafff">{&#39;tcp_tunnel_id&#39;: 1021, &#39;udp_tunnel_id&#39;: 1022}: 0.0.0.0:1020 → 127.0.0.1:8303</text>
</g>
<!-- 2&#45;&gt;4 -->
<g id="edge14" class="edge">
<title>2&#45;&gt;4</title>
<path fill="none" stroke="#9dafff" stroke-dasharray="5,2" d="M1229.12,-251.46C1290.52,-237.68 1379.12,-212.99 1448.92,-174.05 1458.69,-168.61 1457.7,-162.1 1467.92,-157.55 1578.17,-108.49 1931.55,-83.76 2092.58,-74.81"/>
<polygon fill="#9dafff" stroke="#9dafff" points="2092.54,-78.32 2102.33,-74.28 2092.15,-71.33 2092.54,-78.32"/>
<text text-anchor="middle" x="1683.92" y="-160.75" font-family="Times New Roman,serif" font-size="14.00" fill="#9dafff">{&#39;tcp_tunnel_id&#39;: 1021, &#39;udp_tunnel_id&#39;: 1022}: 0.0.0.0:1020 → 127.0.0.1:8304</text>
</g>
<!-- 3&#45;&gt;1 -->
<g id="edge3" class="edge">
<title>3&#45;&gt;1</title>
<path fill="none" stroke="black" stroke-width="2" d="M493.29,-134.62C468.73,-204.92 444.97,-315.88 509.92,-375.4 589.78,-448.57 910.86,-463.44 1068.17,-466.28"/>
<polygon fill="black" stroke="black" stroke-width="2" points="1067.96,-469.78 1078.01,-466.44 1068.07,-462.78 1067.96,-469.78"/>
</g>
<!-- 3&#45;&gt;1 -->
<g id="edge7" class="edge">
<title>3&#45;&gt;1</title>
<path fill="none" stroke="#f5e53a" stroke-dasharray="5,2" d="M512.19,-139.52C512.67,-151.24 514.34,-163.15 517.92,-174.05 546.69,-261.57 564.25,-289.82 640.92,-340.9 773.35,-429.12 961.79,-455.62 1070.19,-463.52"/>
<polygon fill="#f5e53a" stroke="#f5e53a" points="1069.66,-466.99 1079.88,-464.19 1070.14,-460.01 1069.66,-466.99"/>
<text text-anchor="middle" x="856.92" y="-261.43" font-family="Times New Roman,serif" font-size="14.00" fill="#f5e53a">{&#39;tcp_tunnel_id&#39;: 1011, &#39;udp_tunnel_id&#39;: 1012}: 0.0.0.0:1010 → 127.0.0.1:8301</text>
</g>
<!-- 3&#45;&gt;2 -->
<g id="edge4" class="edge">
<title>3&#45;&gt;2</title>
<path fill="none" stroke="black" stroke-width="2" d="M589.62,-76.82C679.65,-86.28 840.09,-108.81 968.92,-157.55 982.43,-162.66 984.44,-166.79 996.92,-174.05 1024.13,-189.89 1054.04,-207.13 1080.51,-222.33"/>
<polygon fill="black" stroke="black" stroke-width="2" points="1078.58,-225.26 1088.99,-227.2 1082.06,-219.19 1078.58,-225.26"/>
</g>
<!-- 3&#45;&gt;2 -->
<g id="edge8" class="edge">
<title>3&#45;&gt;2</title>
<path fill="none" stroke="#f5e53a" stroke-dasharray="5,2" d="M589.75,-74.01C684.69,-80.5 858.21,-99.9 993.92,-157.55 1005.5,-162.47 1006.55,-166.93 1016.92,-174.05 1038.59,-188.94 1062.43,-204.8 1084.14,-219.06"/>
<polygon fill="#f5e53a" stroke="#f5e53a" points="1082.09,-221.9 1092.37,-224.45 1085.92,-216.04 1082.09,-221.9"/>
<text text-anchor="middle" x="1232.92" y="-160.75" font-family="Times New Roman,serif" font-size="14.00" fill="#f5e53a">{&#39;tcp_tunnel_id&#39;: 1011, &#39;udp_tunnel_id&#39;: 1012}: 0.0.0.0:1010 → 127.0.0.1:8302</text>
</g>
<!-- 4&#45;&gt;1 -->
<g id="edge5" class="edge">
<title>4&#45;&gt;1</title>
<path fill="none" stroke="black" stroke-width="2" d="M2243.9,-75.8C2298.84,-83.85 2372,-104.56 2408.92,-157.55 2455.57,-224.51 2455.43,-282.02 2398.92,-340.9 2319.03,-424.14 1513.33,-456 1243.47,-464.38"/>
<polygon fill="black" stroke="black" stroke-width="2" points="1243.56,-460.88 1233.67,-464.68 1243.78,-467.88 1243.56,-460.88"/>
</g>
<!-- 4&#45;&gt;1 -->
<g id="edge9" class="edge">
<title>4&#45;&gt;1</title>
<path fill="none" stroke="#f5e53a" stroke-dasharray="5,2" d="M2243.91,-75.96C2301.72,-84.07 2381.55,-104.78 2427.92,-157.55 2481.75,-218.81 2479.25,-272.46 2434.92,-340.9 2369.94,-441.22 1517.65,-461.82 1241.58,-465.87"/>
<polygon fill="#f5e53a" stroke="#f5e53a" points="1241.9,-462.37 1231.95,-466.01 1242,-469.37 1241.9,-462.37"/>
<text text-anchor="middle" x="2684.25" y="-261.43" font-family="Times New Roman,serif" font-size="14.00" fill="#f5e53a">{&#39;tcp_tunnel_id&#39;: 1011, &#39;udp_tunnel_id&#39;: 1012}: 0.0.0.0:1010 → 127.0.0.1:8301</text>
</g>
<!-- 4&#45;&gt;2 -->
<g id="edge6" class="edge">
<title>4&#45;&gt;2</title>
<path fill="none" stroke="black" stroke-width="2" d="M2107.09,-90.99C2057.73,-106.81 1989.41,-130.6 1931.92,-157.55 1918.84,-163.68 1917.6,-169.41 1903.92,-174.05 1674.6,-251.85 1385.86,-264.94 1243.5,-266.22"/>
<polygon fill="black" stroke="black" stroke-width="2" points="1243.61,-262.72 1233.63,-266.29 1243.65,-269.72 1243.61,-262.72"/>
</g>
<!-- 4&#45;&gt;2 -->
<g id="edge10" class="edge">
<title>4&#45;&gt;2</title>
<path fill="none" stroke="#f5e53a" stroke-dasharray="5,2" d="M2107.4,-91.89C2062.26,-107.38 2001.92,-130.4 1951.92,-157.55 1940.87,-163.56 1940.65,-169.5 1928.92,-174.05 1805.16,-222.06 1416.1,-250.23 1241.83,-260.73"/>
<polygon fill="#f5e53a" stroke="#f5e53a" points="1241.69,-257.23 1231.92,-261.32 1242.11,-264.22 1241.69,-257.23"/>
<text text-anchor="middle" x="2167.92" y="-160.75" font-family="Times New Roman,serif" font-size="14.00" fill="#f5e53a">{&#39;tcp_tunnel_id&#39;: 1011, &#39;udp_tunnel_id&#39;: 1012}: 0.0.0.0:1010 → 127.0.0.1:8302</text>
</g>
</g>
</svg>
